<svg width="94" height="46" viewBox="0 0 94 46" fill="none" xmlns="http://www.w3.org/2000/svg">
<path d="M0 3.35247C0 2.14338 0.969627 1.15413 2.15473 1.15413H7.32607C10.7198 1.15413 13.1438 1.64876 14.6521 2.69297C16.1605 3.68222 16.9146 5.27602 16.9146 7.47437C16.9146 8.95825 16.5375 10.1673 15.7834 11.1566C15.0292 12.1458 13.9519 12.7504 12.6052 12.9702V13.1351C14.3289 13.4649 15.6218 14.1244 16.4298 15.1136C17.2378 16.1029 17.6688 17.4219 17.6688 19.0706C17.6688 21.3239 16.9146 23.0826 15.3524 24.3467C13.7903 25.6107 11.6894 26.2702 8.88825 26.2702H2.15473C0.969627 26.2702 0 25.2809 0 24.0719V3.35247ZM4.04011 11.5413H7.91862C9.58854 11.5413 10.8275 11.2665 11.5817 10.7169C12.3358 10.1673 12.7668 9.23304 12.7668 7.96899C12.7668 6.81486 12.3358 5.93553 11.5278 5.38594C10.6659 4.83636 9.37307 4.61652 7.54155 4.61652H4.04011V11.5413ZM4.04011 14.8388V22.8078H8.2957C9.96562 22.8078 11.2585 22.4781 12.1203 21.8186C12.9822 21.1591 13.4132 20.1148 13.4132 18.6859C13.4132 17.3669 12.9822 16.4326 12.1203 15.7731C11.2585 15.1686 9.91175 14.8388 8.1341 14.8388H4.04011ZM25.2103 24.2367C25.2103 25.3359 24.3484 26.2702 23.2172 26.2702C22.1398 26.2702 21.2241 25.3909 21.2241 24.2367V9.288C21.2241 8.18883 22.086 7.25453 23.2172 7.25453C24.2946 7.25453 25.2103 8.13387 25.2103 9.288V24.2367ZM21.0086 2.2533C21.0086 1.53884 21.2241 0.989254 21.6011 0.604544C21.9782 0.219834 22.5169 0 23.2711 0C23.9713 0 24.51 0.219834 24.8871 0.604544C25.2642 0.989254 25.4797 1.53884 25.4797 2.2533C25.4797 2.96776 25.2642 3.46239 24.8871 3.90206C24.51 4.28677 23.9713 4.5066 23.2711 4.5066C22.5708 4.5066 21.9782 4.28677 21.6011 3.90206C21.2241 3.46239 21.0086 2.9128 21.0086 2.2533ZM46.165 24.2367C46.165 25.3359 45.2493 26.2702 44.1719 26.2702C43.0946 26.2702 42.1788 25.3359 42.1788 24.2367V14.564C42.1788 13.0801 41.9095 11.981 41.3169 11.2665C40.7243 10.552 39.8086 10.1673 38.5696 10.1673C36.8997 10.1673 35.6607 10.662 34.9066 11.7062C34.1524 12.6954 33.7215 14.3991 33.7215 16.7624V24.1818C33.7215 25.2809 32.8596 26.2152 31.7284 26.2152C30.5971 26.2152 29.7352 25.3359 29.7352 24.1818V9.01321C29.7352 8.02395 30.4894 7.25453 31.459 7.25453C32.267 7.25453 32.9673 7.80412 33.1289 8.6285L33.3983 9.72767H33.6138C34.1524 8.84833 34.9605 8.13387 35.984 7.63924C37.0074 7.14462 38.1387 6.92478 39.4315 6.92478C43.9026 6.92478 46.1112 9.23304 46.1112 13.9045V24.2367H46.165ZM66.0424 16.7624C66.0424 19.84 65.2882 22.3132 63.7261 24.0169C62.1639 25.7756 60.0092 26.6549 57.208 26.6549C55.4842 26.6549 53.9221 26.2702 52.5754 25.4458C51.2286 24.6214 50.2052 23.4673 49.5049 21.9834C48.8046 20.4996 48.4275 18.7409 48.4275 16.7624C48.4275 13.6847 49.1817 11.2665 50.7438 9.56279C52.306 7.85908 54.4607 6.97974 57.3158 6.97974C60.0092 6.97974 62.1639 7.85908 63.7261 9.61775C65.2344 11.3764 66.0424 13.7396 66.0424 16.7624ZM52.4676 16.7624C52.4676 21.1591 54.0298 23.3574 57.208 23.3574C60.3324 23.3574 61.9484 21.1591 61.9484 16.7624C61.9484 12.4206 60.3862 10.2773 57.208 10.2773C55.5381 10.2773 54.353 10.8268 53.5989 11.981C52.8447 13.0252 52.4676 14.619 52.4676 16.7624ZM86.243 9.89254V22.4231C86.243 23.9619 86.0814 25.3359 85.7582 26.4351C85.435 27.5342 84.8963 28.4685 84.196 29.238C83.4957 29.9524 82.5261 30.502 81.3948 30.8867C80.2097 31.2165 78.8092 31.4363 77.0854 31.4363C75.5232 31.4363 74.0688 31.2165 72.8298 30.7768C71.5908 30.3371 71.5908 30.2822 70.5135 29.7326C69.4361 29.238 68.9513 28.6334 68.9513 27.919C68.9513 27.3694 69.1668 26.8747 69.5438 26.545C69.9209 26.1603 70.4057 25.9954 70.9444 25.9954C71.5908 25.9954 72.0756 26.49 72.7221 26.8198C73.3685 27.2045 73.7456 27.4243 74.1765 27.5892C74.6075 27.7541 75.0923 27.9739 75.5232 28.0838C75.9542 28.1938 76.4928 28.2487 77.0854 28.2487C78.2705 28.2487 79.1862 28.0838 79.8327 27.7541C80.4791 27.4243 80.9639 26.9297 81.2332 26.3252C81.5026 25.7206 81.6642 25.0611 81.7181 24.4016C81.7719 23.6871 81.7719 23.6871 81.8258 22.1483C81.1255 23.1376 80.3175 23.907 79.4017 24.4566C78.486 25.0062 77.3547 25.226 76.1158 25.226C74.5536 25.226 73.2607 24.8413 72.0756 24.0169C70.9444 23.1925 70.0287 22.0933 69.4361 20.6644C68.8436 19.2355 68.5203 17.5318 68.5203 15.6632C68.5203 14.2343 68.682 12.9702 69.059 11.8711C69.4361 10.7169 69.9748 9.78263 70.6751 9.01321C71.3754 8.24379 72.1834 7.63924 73.0991 7.25453C74.0149 6.86982 74.9845 6.64999 76.1158 6.64999C77.4086 6.64999 78.5398 6.92478 79.5095 7.41941C80.4791 7.91404 81.341 8.73841 82.149 9.83759V9.17808C82.149 8.3537 82.3645 7.74916 82.7415 7.30949C83.1186 6.86982 83.6573 6.64999 84.2499 6.64999C85.1117 6.64999 85.7043 6.92478 86.0275 7.52933C86.0814 7.96899 86.243 8.79337 86.243 9.89254ZM72.345 15.883C72.345 17.8066 72.7759 19.2355 73.6378 20.1698C74.4997 21.1591 75.6309 21.6537 76.9777 21.6537C77.7857 21.6537 78.5398 21.4338 79.294 21.0491C79.9943 20.6095 80.5868 20.0049 81.0716 19.1805C81.5026 18.3562 81.7719 17.312 81.7719 16.1029C81.7719 14.1793 81.341 12.6954 80.4791 11.6512C79.6172 10.607 78.4321 10.0574 77.0315 10.0574C75.6309 10.0574 74.4997 10.552 73.6917 11.5963C72.7759 12.5306 72.345 13.9595 72.345 15.883ZM93.7307 24.2367C93.7307 25.3359 92.8688 26.2702 91.7375 26.2702C90.6063 26.2702 89.7444 25.3909 89.7444 24.2367V9.288C89.7444 8.18883 90.6063 7.25453 91.7375 7.25453C92.8688 7.25453 93.7307 8.13387 93.7307 9.288V24.2367ZM89.5289 2.2533C89.5289 1.53884 89.7444 0.989254 90.1215 0.604544C90.4986 0.219834 91.0372 0 91.7914 0C92.4917 0 93.0304 0.219834 93.4074 0.604544C93.7845 0.989254 94 1.53884 94 2.2533C94 2.96776 93.7845 3.46239 93.4074 3.90206C93.0304 4.28677 92.4917 4.5066 91.7914 4.5066C91.0911 4.5066 90.4986 4.28677 90.1215 3.90206C89.6905 3.46239 89.5289 2.9128 89.5289 2.2533Z" fill="#313131"/>
<path d="M75.954 44.3514C78.4858 44.3514 80.5328 42.263 80.5328 39.7349C80.5328 37.2068 78.4858 35.1183 75.954 35.1183C73.4222 35.1183 71.3752 37.2068 71.3752 39.7349C71.3752 42.263 73.4222 44.3514 75.954 44.3514Z" fill="#2D9CDB"/>
<path d="M21.2238 45.5606C24.4559 45.5606 27.0416 42.9226 27.0416 39.68C27.0416 36.4375 24.402 33.8544 21.2238 33.8544C18.0456 33.8544 15.406 36.4924 15.406 39.735C15.406 42.9775 17.9917 45.5606 21.2238 45.5606Z" fill="#FF9932"/>
<path d="M61.8944 46C65.342 46 68.1431 43.1971 68.1431 39.7347C68.1431 36.2723 65.342 33.4694 61.8944 33.4694C58.4469 33.4694 55.6457 36.2723 55.6457 39.7347C55.6996 43.1971 58.4469 46 61.8944 46Z" fill="#09BC97"/>
<path d="M34.4756 43.9664C36.8458 43.9664 38.7311 42.0429 38.7311 39.6796C38.7311 37.3164 36.8458 35.3929 34.4756 35.3929C32.1054 35.3929 30.22 37.3164 30.22 39.6796C30.22 42.0978 32.1592 43.9664 34.4756 43.9664Z" fill="#DF5B5D"/>
<path d="M7.70257 44.1866C10.1805 44.1866 12.1198 42.2081 12.1198 39.735C12.1198 37.2618 10.1266 35.2833 7.70257 35.2833C5.27851 35.2833 3.28539 37.2618 3.28539 39.735C3.28539 42.2081 5.27851 44.1866 7.70257 44.1866Z" fill="#E3B519"/>
<path d="M47.188 45.0106C50.0969 45.0106 52.4671 42.6474 52.4671 39.6796C52.4671 36.7668 50.0969 34.3486 47.188 34.3486C44.2792 34.3486 41.909 36.7119 41.909 39.6796C41.9628 42.6474 44.2792 45.0106 47.188 45.0106Z" fill="#8FBA22"/>
<path d="M87.2121 43.1974C89.1513 43.1974 90.7135 41.6036 90.7135 39.6801C90.7135 37.7565 89.1513 36.1627 87.2121 36.1627C85.2728 36.1627 83.7106 37.7565 83.7106 39.6801C83.7106 41.6036 85.2728 43.1974 87.2121 43.1974Z" fill="#8D59B0"/>
</svg>
