<svg width="71" height="34" viewBox="0 0 71 34" fill="none" xmlns="http://www.w3.org/2000/svg">
<path d="M0 2.47791C0 1.58424 0.728791 0.853053 1.61954 0.853053H5.50642C8.05719 0.853053 9.87917 1.21865 11.0128 1.99046C12.1465 2.72164 12.7134 3.89967 12.7134 5.52453C12.7134 6.62131 12.4299 7.51499 11.8631 8.24618C11.2963 8.97736 10.4865 9.4242 9.47429 9.58669V9.70855C10.7699 9.95228 11.7416 10.4397 12.349 11.1709C12.9563 11.9021 13.2802 12.877 13.2802 14.0957C13.2802 15.7612 12.7134 17.0611 11.5392 17.9953C10.365 18.9296 8.78599 19.4171 6.68059 19.4171H1.61954C0.728791 19.4171 0 18.6859 0 17.7922V2.47791ZM3.03663 8.53053H5.9518C7.20694 8.53053 8.13817 8.32742 8.70501 7.9212C9.27185 7.51499 9.59575 6.82442 9.59575 5.89012C9.59575 5.03707 9.27185 4.38713 8.66452 3.98091C8.01671 3.5747 7.04498 3.41221 5.66838 3.41221H3.03663V8.53053ZM3.03663 10.9678V16.8579H6.23522C7.49036 16.8579 8.46208 16.6142 9.10989 16.1268C9.75771 15.6393 10.0816 14.8675 10.0816 13.8113C10.0816 12.8364 9.75771 12.1458 9.10989 11.6584C8.46208 11.2115 7.44987 10.9678 6.11375 10.9678H3.03663ZM18.9486 17.9141C18.9486 18.7265 18.3008 19.4171 17.4505 19.4171C16.6407 19.4171 15.9524 18.7672 15.9524 17.9141V6.86504C15.9524 6.05261 16.6002 5.36205 17.4505 5.36205C18.2603 5.36205 18.9486 6.01199 18.9486 6.86504V17.9141ZM15.7905 1.66548C15.7905 1.1374 15.9524 0.731188 16.2359 0.446837C16.5193 0.162486 16.9242 0 17.491 0C18.0173 0 18.4222 0.162486 18.7056 0.446837C18.9891 0.731188 19.151 1.1374 19.151 1.66548C19.151 2.19356 18.9891 2.55916 18.7056 2.88413C18.4222 3.16848 18.0173 3.33097 17.491 3.33097C16.9646 3.33097 16.5193 3.16848 16.2359 2.88413C15.9524 2.55916 15.7905 2.15294 15.7905 1.66548ZM34.6986 17.9141C34.6986 18.7265 34.0103 19.4171 33.2005 19.4171C32.3907 19.4171 31.7024 18.7265 31.7024 17.9141V10.7647C31.7024 9.66793 31.5 8.8555 31.0546 8.32742C30.6092 7.79934 29.9209 7.51499 28.9897 7.51499C27.7346 7.51499 26.8033 7.88058 26.2365 8.65239C25.6697 9.38358 25.3457 10.6428 25.3457 12.3896V17.8735C25.3457 18.6859 24.6979 19.3765 23.8477 19.3765C22.9974 19.3765 22.3496 18.7265 22.3496 17.8735V6.66193C22.3496 5.93075 22.9164 5.36205 23.6452 5.36205C24.2526 5.36205 24.7789 5.76826 24.9004 6.37758L25.1028 7.19001H25.2648C25.6697 6.54007 26.277 6.01199 27.0463 5.6464C27.8155 5.2808 28.6658 5.11832 29.6375 5.11832C32.9981 5.11832 34.6581 6.82442 34.6581 10.2773V17.9141H34.6986ZM49.6388 12.3896C49.6388 14.6644 49.072 16.4923 47.8978 17.7516C46.7236 19.0515 45.1041 19.7015 42.9987 19.7015C41.7031 19.7015 40.5289 19.4171 39.5167 18.8078C38.5045 18.1985 37.7352 17.3454 37.2089 16.2486C36.6825 15.1518 36.3991 13.8519 36.3991 12.3896C36.3991 10.1148 36.9659 8.32742 38.1401 7.06815C39.3142 5.80888 40.9338 5.15894 43.0797 5.15894C45.1041 5.15894 46.7236 5.80888 47.8978 7.10877C49.0315 8.40866 49.6388 10.1554 49.6388 12.3896ZM39.4357 12.3896C39.4357 15.6393 40.6099 17.2642 42.9987 17.2642C45.347 17.2642 46.5617 15.6393 46.5617 12.3896C46.5617 9.18047 45.3875 7.59623 42.9987 7.59623C41.7436 7.59623 40.8528 8.00245 40.286 8.8555C39.7191 9.62731 39.4357 10.8053 39.4357 12.3896ZM64.822 7.31188V16.5736C64.822 17.711 64.7005 18.7265 64.4576 19.539C64.2146 20.3514 63.8097 21.042 63.2834 21.6107C62.757 22.1387 62.0283 22.545 61.178 22.8293C60.2873 23.073 59.2346 23.2355 57.9389 23.2355C56.7648 23.2355 55.6716 23.073 54.7403 22.7481C53.8091 22.4231 53.8091 22.3825 52.9993 21.9763C52.1896 21.6107 51.8252 21.1638 51.8252 20.6357C51.8252 20.2295 51.9871 19.8639 52.2705 19.6202C52.554 19.3359 52.9184 19.214 53.3232 19.214C53.8091 19.214 54.1735 19.5796 54.6594 19.8233C55.1452 20.1077 55.4286 20.2702 55.7525 20.392C56.0765 20.5139 56.4409 20.6764 56.7648 20.7576C57.0887 20.8389 57.4935 20.8795 57.9389 20.8795C58.8297 20.8795 59.518 20.7576 60.0038 20.5139C60.4897 20.2702 60.8541 19.9046 61.0565 19.4577C61.259 19.0109 61.3804 18.5234 61.4209 18.036C61.4614 17.5079 61.4614 17.5079 61.5019 16.3705C60.9756 17.1017 60.3682 17.6704 59.6799 18.0766C58.9916 18.4828 58.1414 18.6453 57.2101 18.6453C56.036 18.6453 55.0642 18.3609 54.1735 17.7516C53.3232 17.1423 52.6349 16.3299 52.1896 15.2737C51.7442 14.2175 51.5013 12.9583 51.5013 11.5771C51.5013 10.521 51.6227 9.58669 51.9062 8.77426C52.1896 7.9212 52.5945 7.23064 53.1208 6.66193C53.6472 6.09323 54.2545 5.6464 54.9428 5.36205C55.6311 5.07769 56.3599 4.91521 57.2101 4.91521C58.1819 4.91521 59.0321 5.11832 59.7609 5.48391C60.4897 5.8495 61.1375 6.45883 61.7448 7.27126V6.7838C61.7448 6.17448 61.9068 5.72764 62.1902 5.40267C62.4736 5.07769 62.8785 4.91521 63.3239 4.91521C63.9717 4.91521 64.4171 5.11832 64.66 5.56515C64.7005 5.89013 64.822 6.49945 64.822 7.31188ZM54.3759 11.7396C54.3759 13.1614 54.6999 14.2175 55.3477 14.9081C55.9955 15.6393 56.8457 16.0049 57.8579 16.0049C58.4653 16.0049 59.0321 15.8424 59.5989 15.5581C60.1253 15.2331 60.5707 14.7862 60.9351 14.1769C61.259 13.5676 61.4614 12.7958 61.4614 11.9021C61.4614 10.4804 61.1375 9.38358 60.4897 8.61177C59.8419 7.83996 58.9511 7.43374 57.8984 7.43374C56.8457 7.43374 55.9955 7.79934 55.3881 8.57115C54.6998 9.26171 54.3759 10.3179 54.3759 11.7396ZM70.4498 17.9141C70.4498 18.7265 69.802 19.4171 68.9518 19.4171C68.1015 19.4171 67.4537 18.7672 67.4537 17.9141V6.86504C67.4537 6.05261 68.1015 5.36205 68.9518 5.36205C69.802 5.36205 70.4498 6.01199 70.4498 6.86504V17.9141ZM67.2917 1.66548C67.2917 1.1374 67.4537 0.731188 67.7371 0.446837C68.0205 0.162486 68.4254 0 68.9923 0C69.5186 0 69.9235 0.162486 70.2069 0.446837C70.4903 0.731188 70.6523 1.1374 70.6523 1.66548C70.6523 2.19356 70.4903 2.55916 70.2069 2.88413C69.9235 3.16848 69.5186 3.33097 68.9923 3.33097C68.4659 3.33097 68.0205 3.16848 67.7371 2.88413C67.4132 2.55916 67.2917 2.15294 67.2917 1.66548Z" fill="white"/>
<path d="M57.088 32.7814C58.991 32.7814 60.5295 31.2378 60.5295 29.3692C60.5295 27.5006 58.991 25.957 57.088 25.957C55.185 25.957 53.6465 27.5006 53.6465 29.3692C53.6465 31.2378 55.185 32.7814 57.088 32.7814Z" fill="#2D9CDB"/>
<path d="M15.9518 33.6753C18.3812 33.6753 20.3246 31.7255 20.3246 29.3288C20.3246 26.9322 18.3407 25.0229 15.9518 25.0229C13.563 25.0229 11.5791 26.9728 11.5791 29.3695C11.5791 31.7661 13.5225 33.6753 15.9518 33.6753Z" fill="#FF9932"/>
<path d="M46.5209 34C49.1121 34 51.2175 31.9283 51.2175 29.3691C51.2175 26.81 49.1121 24.7383 46.5209 24.7383C43.9296 24.7383 41.8242 26.81 41.8242 29.3691C41.8647 31.9283 43.9296 34 46.5209 34Z" fill="#09BC97"/>
<path d="M25.9125 32.4969C27.6939 32.4969 29.111 31.0751 29.111 29.3284C29.111 27.5817 27.6939 26.1599 25.9125 26.1599C24.131 26.1599 22.7139 27.5817 22.7139 29.3284C22.7139 31.1157 24.1715 32.4969 25.9125 32.4969Z" fill="#DF5B5D"/>
<path d="M5.78977 32.6598C7.65224 32.6598 9.10982 31.1974 9.10982 29.3694C9.10982 27.5415 7.61175 26.0791 5.78977 26.0791C3.9678 26.0791 2.46973 27.5415 2.46973 29.3694C2.46973 31.1974 3.9678 32.6598 5.78977 32.6598Z" fill="#E3B519"/>
<path d="M35.4679 33.2688C37.6542 33.2688 39.4357 31.522 39.4357 29.3285C39.4357 27.1755 37.6542 25.3882 35.4679 25.3882C33.2815 25.3882 31.5 27.1349 31.5 29.3285C31.5405 31.522 33.2815 33.2688 35.4679 33.2688Z" fill="#8FBA22"/>
<path d="M65.5507 31.9286C67.0083 31.9286 68.1824 30.7505 68.1824 29.3288C68.1824 27.907 67.0083 26.729 65.5507 26.729C64.0931 26.729 62.9189 27.907 62.9189 29.3288C62.9189 30.7505 64.0931 31.9286 65.5507 31.9286Z" fill="#8D59B0"/>
</svg>
