<svg width="106" height="36" viewBox="0 0 106 36" fill="none" xmlns="http://www.w3.org/2000/svg">
<path d="M0 3.68292C0.00138674 3.04268 0.257883 2.42905 0.713358 1.97632C1.16883 1.5236 1.78619 1.26865 2.43033 1.26727H8.26731C12.0939 1.26727 14.8287 1.78901 16.5294 2.95771C18.2301 4.1264 19.0857 5.79597 19.0857 8.21162C19.1341 9.66913 18.6763 11.0988 17.7891 12.2603C16.889 13.3414 15.617 14.0517 14.2198 14.2534V14.436C16.1672 14.8012 17.6264 15.5264 18.5398 16.6116C19.5113 17.8507 20.0064 19.3935 19.936 20.9629C19.936 23.436 19.0857 25.3716 17.3115 26.7594C15.5373 28.1473 13.1804 28.8725 10.0153 28.8725H2.43033C1.78619 28.8711 1.16883 28.6162 0.713358 28.1634C0.257883 27.7107 0.00138674 27.0971 0 26.4568V3.68292ZM4.5562 12.6829H8.93394C10.8184 12.6829 12.2146 12.3803 13.065 11.7803C13.9153 11.1803 14.4035 10.1473 14.4035 8.75945C14.4373 8.20603 14.3265 7.65334 14.0818 7.15509C13.8371 6.65684 13.4669 6.22997 13.0072 5.91597C12.0152 5.31597 10.5769 5.07075 8.50876 5.07075H4.5562V12.6829ZM4.5562 16.3716V25.1316H9.35912C11.2435 25.1316 12.7028 24.7664 13.6739 24.0412C14.6449 23.316 15.1331 22.1681 15.1331 20.5977C15.1755 19.9854 15.0643 19.3723 14.8097 18.8132C14.555 18.2541 14.1647 17.7665 13.6739 17.3942C12.7028 16.7316 11.1805 16.3507 9.1754 16.3507L4.5562 16.3716ZM28.4448 26.6394C28.4169 27.2137 28.1677 27.7552 27.749 28.1518C27.3302 28.5484 26.774 28.7697 26.1956 28.7697C25.6171 28.7697 25.0609 28.5484 24.6422 28.1518C24.2234 27.7552 23.9742 27.2137 23.9463 26.6394V10.2099C23.9316 9.9072 23.9789 9.60471 24.0853 9.32073C24.1917 9.03676 24.355 8.77721 24.5653 8.55783C24.7756 8.33844 25.0285 8.16379 25.3088 8.04445C25.589 7.92512 25.8907 7.86359 26.1956 7.86359C26.5004 7.86359 26.8021 7.92512 27.0823 8.04445C27.3626 8.16379 27.6155 8.33844 27.8258 8.55783C28.0361 8.77721 28.1994 9.03676 28.3058 9.32073C28.4122 9.60471 28.4595 9.9072 28.4448 10.2099V26.6394ZM23.7206 2.47249C23.7035 2.14167 23.7537 1.81082 23.8683 1.49974C23.9828 1.18866 24.1593 0.903746 24.3872 0.662055C24.8989 0.206663 25.5698 -0.0312229 26.2559 -0.000554109C26.5888 -0.0178526 26.9217 0.0319288 27.2347 0.145798C27.5477 0.259666 27.8344 0.435271 28.0773 0.662055C28.3059 0.903491 28.4833 1.18824 28.5987 1.49929C28.7141 1.81035 28.7653 2.14133 28.7492 2.47249C28.771 3.14146 28.53 3.7926 28.0773 4.28814C27.8344 4.51493 27.5477 4.69053 27.2347 4.8044C26.9217 4.91827 26.5888 4.96805 26.2559 4.95075C25.5644 4.98559 24.8871 4.74743 24.3715 4.28814C23.9304 3.78606 23.6928 3.13894 23.7049 2.47249H23.7206ZM52.0867 26.6394C52.0587 27.2137 51.8096 27.7552 51.3908 28.1518C50.9721 28.5484 50.4158 28.7697 49.8374 28.7697C49.259 28.7697 48.7028 28.5484 48.284 28.1518C47.8653 27.7552 47.6161 27.2137 47.5882 26.6394V16.069C47.5882 14.436 47.2837 13.2308 46.6171 12.4429C45.9505 11.6551 44.9164 11.2325 43.5201 11.2325C41.6357 11.2325 40.2342 11.7803 39.3839 12.9281C38.5335 14.076 38.0454 15.8864 38.0454 18.4847V26.6394C38.046 26.9329 37.9884 27.2236 37.8758 27.4948C37.7631 27.766 37.5976 28.0125 37.3889 28.22C37.1801 28.4275 36.9322 28.5919 36.6593 28.7039C36.3864 28.8159 36.094 28.8732 35.7987 28.8725C35.5008 28.8803 35.2044 28.828 34.9274 28.7187C34.6504 28.6095 34.3986 28.4456 34.1872 28.2368C33.9757 28.0281 33.809 27.779 33.6972 27.5044C33.5853 27.2298 33.5306 26.9356 33.5364 26.6394V9.90727C33.5329 9.65255 33.5807 9.39971 33.677 9.16362C33.7733 8.92754 33.9161 8.713 34.0971 8.53263C34.2781 8.35225 34.4935 8.20969 34.7308 8.11335C34.968 8.017 35.2223 7.96881 35.4786 7.97162C35.921 7.96548 36.3516 8.1134 36.6958 8.38976C37.04 8.66611 37.276 9.05346 37.363 9.48466L37.6674 10.6899H37.9089C38.5609 9.68496 39.4902 8.88797 40.5859 8.39423C41.8069 7.84648 43.1363 7.57899 44.4755 7.61162C49.5199 7.61162 52.0132 10.1473 52.0132 15.2812V26.6394H52.0867ZM74.516 18.4221C74.516 21.8081 73.6656 24.5264 71.8915 26.3994C70.1173 28.2725 67.6922 29.3003 64.5427 29.3003C62.7033 29.3442 60.8873 28.8839 59.2936 27.9699C57.7837 27.0708 56.5776 25.7448 55.8293 24.1612C54.9925 22.3641 54.5762 20.402 54.6115 18.4221C54.6115 15.0412 55.4671 12.3803 57.236 10.5073C59.005 8.63423 61.4353 7.66901 64.653 7.66901C67.6922 7.66901 70.1225 8.63945 71.8862 10.5699C73.6499 12.5003 74.516 15.0881 74.516 18.4221ZM59.1992 18.4221C59.1992 23.2586 60.9629 25.6742 64.548 25.6742C68.1331 25.6742 69.8968 23.2586 69.8968 18.4221C69.8968 13.5855 68.1331 11.2951 64.548 11.2951C62.6636 11.2951 61.325 11.9003 60.4747 13.1681C59.6243 14.316 59.1992 16.1316 59.1992 18.4221ZM96.9401 10.8099V24.5838C96.9726 26.3961 96.7964 28.2061 96.4152 29.9786C96.1197 31.1449 95.51 32.2092 94.6515 33.0568C93.7806 33.9269 92.6943 34.5532 91.502 34.8725C90.0476 35.3363 88.531 35.579 87.0036 35.5925C85.3754 35.6158 83.7545 35.3726 82.2059 34.8725C81.2981 34.5841 80.4195 34.2121 79.5814 33.7612C78.3636 33.2134 77.8492 32.5142 77.8492 31.7264C77.8371 31.446 77.8856 31.1664 77.9916 30.9062C78.0975 30.6461 78.2584 30.4116 78.4633 30.2186C78.6714 30.0176 78.9181 29.8605 79.1886 29.7565C79.4592 29.6525 79.7481 29.6038 80.038 29.6134C80.7676 29.6134 81.3188 30.1351 82.0484 30.5212C82.5698 30.8476 83.1176 31.1303 83.6861 31.3664C84.1836 31.5678 84.6918 31.742 85.2084 31.8881C85.7852 32.0179 86.3755 32.0792 86.9668 32.0708C88.0271 32.1287 89.087 31.9504 90.069 31.549C90.7585 31.2215 91.3142 30.6691 91.6438 29.9838C91.9426 28.9753 92.1188 27.9348 92.1687 26.8847C92.2316 26.1021 92.2316 26.1021 92.2894 24.4116C91.5657 25.4372 90.6342 26.3009 89.5546 26.9473C88.4171 27.552 87.1377 27.8438 85.8488 27.7925C84.2301 27.8324 82.6398 27.3651 81.3031 26.4568C79.9799 25.5327 78.9464 24.2559 78.3216 22.7734C77.608 21.0277 77.2511 19.1584 77.2718 17.2742C77.2382 15.8588 77.444 14.4479 77.8807 13.1003C78.2535 11.9373 78.8769 10.869 79.7073 9.96988C80.4663 9.13576 81.3997 8.47686 82.4421 8.03945C83.5195 7.59261 84.6761 7.36551 85.8435 7.37162C87.1696 7.3523 88.4819 7.64176 89.6753 8.21684C90.8605 8.86391 91.8791 9.77458 92.6516 10.8777V10.1473C92.6254 9.39605 92.8839 8.66244 93.3759 8.09162C93.5608 7.86491 93.797 7.68483 94.0652 7.56605C94.3333 7.44728 94.626 7.39317 94.9192 7.40814C95.8903 7.40814 96.2629 7.61162 96.7196 8.21162C96.9401 8.68118 96.9401 9.54205 96.9401 10.8099ZM81.6233 17.4568C81.6233 19.5716 82.1097 21.1368 83.0825 22.1525C83.5516 22.683 84.1324 23.1043 84.7838 23.3866C85.4351 23.6688 86.141 23.805 86.8513 23.7855C87.7675 23.776 88.6678 23.5469 89.4759 23.1177C90.304 22.6088 90.9927 21.9045 91.481 21.0673C92.0148 20.0242 92.2833 18.8669 92.2631 17.6968C92.2631 15.5821 91.7767 13.9508 90.8039 12.8029C90.3301 12.239 89.7341 11.7888 89.0605 11.4862C88.387 11.1835 87.6533 11.0361 86.9143 11.0551C86.1964 11.0202 85.4803 11.1553 84.8251 11.4491C84.1699 11.743 83.5942 12.1873 83.1455 12.7455C82.1114 13.7734 81.6233 15.4012 81.6233 17.4568ZM105.769 26.6394C105.77 26.9329 105.712 27.2236 105.599 27.4948C105.487 27.766 105.321 28.0125 105.113 28.22C104.904 28.4275 104.656 28.5919 104.383 28.7039C104.11 28.8159 103.818 28.8732 103.522 28.8725C103.224 28.8817 102.926 28.8305 102.648 28.7219C102.37 28.6133 102.117 28.4496 101.904 28.2407C101.691 28.0318 101.524 27.7822 101.411 27.5069C101.299 27.2316 101.244 26.9365 101.25 26.6394V10.2099C101.248 9.916 101.305 9.62475 101.418 9.35291C101.53 9.08107 101.695 8.83402 101.904 8.62597C102.113 8.41792 102.361 8.25299 102.634 8.14069C102.908 8.02839 103.201 7.97093 103.496 7.97162C103.793 7.96593 104.088 8.01997 104.364 8.1305C104.639 8.24104 104.89 8.40578 105.099 8.61484C105.309 8.8239 105.474 9.07296 105.585 9.34706C105.696 9.62116 105.749 9.91464 105.743 10.2099L105.769 26.6394ZM101.045 2.47249C101.029 2.14133 101.08 1.81035 101.195 1.49929C101.311 1.18824 101.488 0.903491 101.717 0.662055C102.226 0.234632 102.871 0.000169349 103.538 0.000169349C104.205 0.000169349 104.85 0.234632 105.36 0.662055C105.588 0.903491 105.766 1.18824 105.881 1.49929C105.996 1.81035 106.048 2.14133 106.031 2.47249C106.053 3.14146 105.812 3.7926 105.36 4.28814C105.116 4.51468 104.83 4.69012 104.517 4.80397C104.204 4.91783 103.871 4.96775 103.538 4.95075C102.847 4.98559 102.169 4.74743 101.654 4.28814C101.219 3.78428 100.99 3.13615 101.013 2.47249H101.045Z" fill="#000"/>
</svg>
